<svg width="101" height="29" viewBox="0 0 101 29" fill="none" xmlns="http://www.w3.org/2000/svg">
<g clip-path="url(#clip0_1522_157)">
<path fill-rule="evenodd" clip-rule="evenodd" d="M0.5 17.2454V0C1.71643 0 3.28862 1.11309 3.28862 3.49022V17.2454C3.28862 22.1805 7.24121 26.18 12.1184 26.18C16.9956 26.18 20.9482 22.1805 20.9482 17.2454C20.9482 12.3103 16.9956 8.31083 12.1184 8.31083C9.28553 8.31083 6.76414 9.66114 5.14769 11.7612V7.83972C7.08874 6.36334 9.50357 5.48913 12.1184 5.48913C18.535 5.48913 23.7368 10.7527 23.7368 17.2454C23.7368 23.7381 18.535 29.0017 12.1184 29.0017C5.70181 29.0017 0.5 23.7381 0.5 17.2454Z" fill="#00A0DC"/>
<path fill-rule="evenodd" clip-rule="evenodd" d="M36.1736 6.16992C42.2 6.16992 47.0854 11.1133 47.0854 17.2112C47.0854 17.4866 47.0756 17.7586 47.0559 18.029H26.9142C27.3241 22.8397 31.3127 26.6169 36.1736 26.6169C39.372 26.6169 42.1737 24.968 43.864 22.4913C44.3574 21.7681 44.9083 20.7777 46.5264 20.7081C45.0804 25.0924 40.9917 28.2525 36.1736 28.2525C30.1471 28.2525 25.2617 23.3092 25.2617 17.2112C25.2617 11.1133 30.1471 6.16992 36.1736 6.16992ZM26.9142 16.3934H45.4345C45.0247 11.5811 41.036 7.80555 36.1752 7.80555C31.3144 7.80555 27.3241 11.5811 26.9159 16.3934H26.9142Z" fill="white" stroke="white" stroke-width="0.22" stroke-miterlimit="10"/>
<path fill-rule="evenodd" clip-rule="evenodd" d="M48.6016 0.660156C49.3688 0.66845 50.218 2.23109 50.218 3.2463V28.2518C49.0442 28.2518 48.6016 26.724 48.6016 26.0107V0.660156Z" fill="white" stroke="white" stroke-width="0.22" stroke-miterlimit="10"/>
<path fill-rule="evenodd" clip-rule="evenodd" d="M75.1328 6.1683C76.7575 6.15668 77.6755 6.44366 79.9887 8.7843L87.1791 16.06L94.3695 8.7843C96.6827 6.44366 97.7713 6.1683 99.2254 6.1683L88.3136 17.2096L99.2254 28.2509C96.9171 28.2509 96.1696 27.5028 94.7416 26.0098L87.1791 18.3575L79.6166 26.0098C78.187 27.5028 77.4394 28.2509 75.1328 28.2509L86.0446 17.2096L75.1328 6.1683Z" fill="white" stroke="white" stroke-width="0.22" stroke-miterlimit="10"/>
<path fill-rule="evenodd" clip-rule="evenodd" d="M73.8432 17.2112C73.8432 23.3092 68.9578 28.2525 62.9314 28.2525C56.9049 28.2525 52.0195 23.3092 52.0195 17.2112V6.16992C52.9442 6.16992 53.636 7.56833 53.636 8.78593V17.2112C53.636 22.4051 57.7984 26.6169 62.9314 26.6169C68.0643 26.6169 72.2268 22.4051 72.2268 17.2112V8.78593C72.2268 7.55672 73.0694 6.26614 73.8432 6.16992V17.2112Z" fill="white" stroke="white" stroke-width="0.22" stroke-miterlimit="10"/>
<path fill-rule="evenodd" clip-rule="evenodd" d="M98.0598 14.4238C98.4696 14.4238 98.8663 14.53 99.2516 14.7423C99.6401 14.953 99.9418 15.2566 100.158 15.6481C100.375 16.0429 100.483 16.4526 100.483 16.8789C100.483 17.3052 100.376 17.7067 100.163 18.0982C99.95 18.488 99.65 18.7899 99.2663 19.0056C98.8811 19.2212 98.4794 19.329 98.0598 19.329C97.6401 19.329 97.2384 19.2212 96.8548 19.0056C96.4695 18.7899 96.1712 18.488 95.9564 18.0982C95.7416 17.7067 95.6367 17.3019 95.6367 16.8789C95.6367 16.4559 95.7449 16.0412 95.9613 15.6481C96.1794 15.2566 96.481 14.953 96.8695 14.7423C97.2564 14.53 97.6548 14.4238 98.0598 14.4238ZM98.0598 14.8302C97.7204 14.8302 97.3892 14.9182 97.0663 15.094C96.7433 15.2698 96.4908 15.5236 96.3089 15.8538C96.1285 16.1822 96.0351 16.5239 96.0351 16.8789C96.0351 17.2339 96.1253 17.5707 96.304 17.8941C96.4826 18.2176 96.7318 18.4698 97.0515 18.6506C97.3745 18.8297 97.7089 18.921 98.0581 18.921C98.4073 18.921 98.745 18.8297 99.0631 18.6506C99.3844 18.4681 99.6336 18.216 99.8123 17.8941C99.991 17.569 100.079 17.2306 100.079 16.8789C100.079 16.5272 99.9877 16.1822 99.8073 15.8538C99.627 15.5236 99.3745 15.2715 99.0516 15.094C98.727 14.9182 98.3942 14.8302 98.0565 14.8302H98.0598ZM97.1368 18.2325V15.5933H98.0335C98.3384 15.5933 98.5614 15.6182 98.6975 15.6663C98.8368 15.7144 98.945 15.8007 99.0286 15.9218C99.109 16.0429 99.1483 16.1723 99.1483 16.3083C99.1483 16.5007 99.0811 16.6716 98.945 16.8142C98.809 16.9552 98.627 17.0365 98.404 17.0531C98.4942 17.0929 98.5696 17.1394 98.627 17.1924C98.7303 17.2953 98.8598 17.4728 99.0106 17.7166L99.3286 18.2325H98.8647L98.5844 17.8162C98.4024 17.4894 98.2565 17.2853 98.145 17.2041C98.0679 17.1427 97.9548 17.1112 97.8073 17.1112H97.5614V18.2325H97.14H97.1368ZM97.5581 16.7462H98.0679C98.3139 16.7462 98.4794 16.7097 98.568 16.6367C98.6581 16.5621 98.7024 16.4642 98.7024 16.3431C98.7024 16.2668 98.6811 16.1988 98.6385 16.1341C98.5942 16.0711 98.5352 16.0263 98.4581 15.9964C98.3827 15.9666 98.2417 15.9516 98.0384 15.9516H97.5581V16.7462Z" fill="white" stroke="#D2D3E1" stroke-width="0.22" stroke-miterlimit="10"/>
</g>
<defs>
<clipPath id="clip0_1522_157">
<rect width="100" height="29" fill="white" transform="translate(0.5)"/>
</clipPath>
</defs>
</svg>
