<svg width="101" height="28" viewBox="0 0 101 28" fill="none" xmlns="http://www.w3.org/2000/svg">
<g clip-path="url(#clip0_1402_607)">
<path fill-rule="evenodd" clip-rule="evenodd" d="M0.5 16.6507V0C1.71643 0 3.28862 1.07471 3.28862 3.36987V16.6507C3.28862 21.4156 7.24121 25.2772 12.1184 25.2772C16.9956 25.2772 20.9482 21.4156 20.9482 16.6507C20.9482 11.8858 16.9956 8.02425 12.1184 8.02425C9.28553 8.02425 6.76414 9.32799 5.14769 11.3557V7.56938C7.08874 6.14392 9.50358 5.29985 12.1184 5.29985C18.535 5.29985 23.7368 10.3819 23.7368 16.6507C23.7368 22.9196 18.535 28.0016 12.1184 28.0016C5.70181 28.0016 0.5 22.9196 0.5 16.6507Z" fill="#00A0DC"/>
<path fill-rule="evenodd" clip-rule="evenodd" d="M36.1716 5.95651C42.198 5.95651 47.0834 10.7294 47.0834 16.6171C47.0834 16.8829 47.0736 17.1456 47.0539 17.4067H26.9123C27.3221 22.0515 31.3108 25.6984 36.1716 25.6984C39.3701 25.6984 42.1718 24.1064 43.862 21.7151C44.3555 21.0168 44.9063 20.0606 46.5244 19.9933C45.0784 24.2265 40.9898 27.2776 36.1716 27.2776C30.1452 27.2776 25.2598 22.5047 25.2598 16.6171C25.2598 10.7294 30.1452 5.95651 36.1716 5.95651ZM26.9123 15.8275H45.4326C45.0227 11.1811 41.0341 7.53574 36.1732 7.53574C31.3124 7.53574 27.3221 11.1811 26.9139 15.8275H26.9123Z" fill="#373843" stroke="#373843" stroke-width="0.22" stroke-miterlimit="10"/>
<path fill-rule="evenodd" clip-rule="evenodd" d="M48.6016 0.637451C49.3688 0.645459 50.218 2.15421 50.218 3.13442V27.2777C49.0442 27.2777 48.6016 25.8025 48.6016 25.1138V0.637451Z" fill="#373843" stroke="#373843" stroke-width="0.22" stroke-miterlimit="10"/>
<path fill-rule="evenodd" clip-rule="evenodd" d="M75.1318 5.95652C76.7565 5.94531 77.6745 6.2224 79.9877 8.48232L87.1781 15.5071L94.3685 8.48232C96.6817 6.2224 97.7703 5.95652 99.2244 5.95652L88.3126 16.6171L99.2244 27.2777C96.9162 27.2777 96.1686 26.5553 94.7407 25.1138L87.1781 17.7254L79.6156 25.1138C78.186 26.5553 77.4385 27.2777 75.1318 27.2777L86.0437 16.6171L75.1318 5.95652Z" fill="#373843" stroke="#373843" stroke-width="0.22" stroke-miterlimit="10"/>
<path fill-rule="evenodd" clip-rule="evenodd" d="M73.8449 16.6171C73.8449 22.5047 68.9595 27.2776 62.9331 27.2776C56.9066 27.2776 52.0212 22.5047 52.0212 16.6171V5.95651C52.9459 5.95651 53.6377 7.3067 53.6377 8.48231V16.6171C53.6377 21.6318 57.8001 25.6984 62.9331 25.6984C68.066 25.6984 72.2285 21.6318 72.2285 16.6171V8.48231C72.2285 7.29549 73.0711 6.04941 73.8449 5.95651V16.6171Z" fill="#373843" stroke="#373843" stroke-width="0.22" stroke-miterlimit="10"/>
<path fill-rule="evenodd" clip-rule="evenodd" d="M98.059 13.9263C98.4689 13.9263 98.8656 14.0288 99.2509 14.2338C99.6394 14.4373 99.941 14.7304 100.157 15.1083C100.374 15.4895 100.482 15.8851 100.482 16.2968C100.482 16.7084 100.375 17.096 100.162 17.474C99.9492 17.8504 99.6492 18.1419 99.2656 18.3501C98.8804 18.5583 98.4787 18.6624 98.059 18.6624C97.6393 18.6624 97.2377 18.5583 96.8541 18.3501C96.4688 18.1419 96.1704 17.8504 95.9557 17.474C95.7409 17.096 95.636 16.7052 95.636 16.2968C95.636 15.8883 95.7442 15.4879 95.9606 15.1083C96.1786 14.7304 96.4803 14.4373 96.8688 14.2338C97.2557 14.0288 97.6541 13.9263 98.059 13.9263ZM98.059 14.3187C97.7197 14.3187 97.3885 14.4036 97.0655 14.5734C96.7426 14.7432 96.4901 14.9882 96.3081 15.307C96.1278 15.6241 96.0344 15.954 96.0344 16.2968C96.0344 16.6395 96.1245 16.9647 96.3032 17.277C96.4819 17.5893 96.7311 17.8327 97.0508 18.0073C97.3737 18.1803 97.7082 18.2684 98.0574 18.2684C98.4066 18.2684 98.7443 18.1803 99.0623 18.0073C99.3837 17.8311 99.6328 17.5877 99.8115 17.277C99.9902 16.9631 100.079 16.6363 100.079 16.2968C100.079 15.9572 99.9869 15.6241 99.8066 15.307C99.6263 14.9882 99.3738 14.7448 99.0509 14.5734C98.7263 14.4036 98.3935 14.3187 98.0557 14.3187H98.059ZM97.136 17.6037V15.0555H98.0328C98.3377 15.0555 98.5607 15.0795 98.6967 15.126C98.8361 15.1724 98.9443 15.2557 99.0279 15.3726C99.1082 15.4895 99.1476 15.6145 99.1476 15.7458C99.1476 15.9316 99.0804 16.0966 98.9443 16.2343C98.8082 16.3704 98.6262 16.4489 98.4033 16.4649C98.4935 16.5034 98.5689 16.5482 98.6262 16.5995C98.7295 16.6988 98.859 16.8702 99.0099 17.1056L99.3279 17.6037H98.864L98.5836 17.2017C98.4016 16.8862 98.2557 16.6892 98.1443 16.6107C98.0672 16.5514 97.9541 16.521 97.8065 16.521H97.5606V17.6037H97.1393H97.136ZM97.5574 16.1686H98.0672C98.3131 16.1686 98.4787 16.1334 98.5672 16.0629C98.6574 15.9909 98.7017 15.8964 98.7017 15.7794C98.7017 15.7058 98.6803 15.6401 98.6377 15.5776C98.5935 15.5168 98.5344 15.4735 98.4574 15.4447C98.382 15.4159 98.241 15.4014 98.0377 15.4014H97.5574V16.1686Z" fill="#373843" stroke="#D2D3E1" stroke-width="0.22" stroke-miterlimit="10"/>
</g>
<defs>
<clipPath id="clip0_1402_607">
<rect width="100" height="28" fill="white" transform="translate(0.5)"/>
</clipPath>
</defs>
</svg>
