<svg width="52" height="75" viewBox="0 0 52 75" fill="none" xmlns="http://www.w3.org/2000/svg">
<path d="M52 26C52 49 26 74.5 26 74.5C26 74.5 0 49 0 26C0 11.6406 11.6406 0 26 0C40.3594 0 52 11.6406 52 26Z" fill="#00A0DC"/>
<path d="M8 25.5C8 15.2827 16.2827 7 26.5 7C36.7173 7 45 15.2827 45 25.5C45 35.7173 36.7173 44 26.5 44C16.2827 44 8 35.7173 8 25.5Z" fill="white"/>
<path fill-rule="evenodd" clip-rule="evenodd" d="M18 27.082V14C18.9423 14 20.1602 14.8444 20.1602 16.6476V27.082C20.1602 30.8256 23.222 33.8595 27 33.8595C30.778 33.8595 33.8398 30.8256 33.8398 27.082C33.8398 23.3383 30.778 20.3044 27 20.3044C24.8056 20.3044 22.8524 21.3287 21.6003 22.9218V19.947C23.1039 18.8271 24.9745 18.1639 27 18.1639C31.9705 18.1639 36 22.1567 36 27.082C36 32.0072 31.9705 36 27 36C22.0295 36 18 32.0072 18 27.082Z" fill="#00A0DC"/>
</svg>
