<svg width="49" height="48" viewBox="0 0 49 48" fill="none" xmlns="http://www.w3.org/2000/svg">
<circle cx="24.5" cy="24" r="23.5" stroke="#D2D3E1"/>
<path d="M20.5 14V17" stroke="#373843" stroke-miterlimit="10" stroke-linecap="round" stroke-linejoin="round"/>
<path d="M28.5 14V17" stroke="#373843" stroke-miterlimit="10" stroke-linecap="round" stroke-linejoin="round"/>
<path d="M16 21.0898H33" stroke="#373843" stroke-miterlimit="10" stroke-linecap="round" stroke-linejoin="round"/>
<path d="M30.5 35C32.7091 35 34.5 33.2091 34.5 31C34.5 28.7909 32.7091 27 30.5 27C28.2909 27 26.5 28.7909 26.5 31C26.5 33.2091 28.2909 35 30.5 35Z" stroke="#373843" stroke-miterlimit="10" stroke-linecap="round" stroke-linejoin="round"/>
<path d="M31.5702 32.11L29.4502 30" stroke="#373843" stroke-miterlimit="10" stroke-linecap="round" stroke-linejoin="round"/>
<path d="M31.5502 30.02L29.4302 32.14" stroke="#373843" stroke-miterlimit="10" stroke-linecap="round" stroke-linejoin="round"/>
<path d="M33.5 20.5V28.36C32.77 27.53 31.7 27 30.5 27C28.29 27 26.5 28.79 26.5 31C26.5 31.75 26.71 32.46 27.08 33.06C27.29 33.42 27.56 33.74 27.87 34H20.5C17 34 15.5 32 15.5 29V20.5C15.5 17.5 17 15.5 20.5 15.5H28.5C32 15.5 33.5 17.5 33.5 20.5Z" stroke="#373843" stroke-miterlimit="10" stroke-linecap="round" stroke-linejoin="round"/>
<path d="M24.4955 25.7002H24.5045" stroke="#373843" stroke-linecap="round" stroke-linejoin="round"/>
<path d="M20.7943 25.7002H20.8033" stroke="#373843" stroke-linecap="round" stroke-linejoin="round"/>
<path d="M20.7943 28.7002H20.8033" stroke="#373843" stroke-linecap="round" stroke-linejoin="round"/>
</svg>
