<svg width="48" height="48" viewBox="0 0 48 48" fill="none" xmlns="http://www.w3.org/2000/svg">
<circle cx="24" cy="24" r="23.5" stroke="#D2D3E1"/>
<path d="M15.1699 19.4399L23.9999 24.5499L32.7699 19.4699" stroke="#373843" stroke-linecap="round" stroke-linejoin="round"/>
<path d="M24 33.61V24.54" stroke="#373843" stroke-linecap="round" stroke-linejoin="round"/>
<path d="M21.9301 14.48L16.5901 17.45C15.3801 18.12 14.3901 19.8 14.3901 21.18V26.83C14.3901 28.21 15.3801 29.89 16.5901 30.56L21.9301 33.53C23.0701 34.16 24.9401 34.16 26.0801 33.53L31.4201 30.56C32.6301 29.89 33.6201 28.21 33.6201 26.83V21.18C33.6201 19.8 32.6301 18.12 31.4201 17.45L26.0801 14.48C24.9301 13.84 23.0701 13.84 21.9301 14.48Z" stroke="#373843" stroke-linecap="round" stroke-linejoin="round"/>
<path d="M28.9998 25.2401V21.5801L19.5098 16.1001" stroke="#373843" stroke-linecap="round" stroke-linejoin="round"/>
</svg>
