<svg width="49" height="48" viewBox="0 0 49 48" fill="none" xmlns="http://www.w3.org/2000/svg">
<circle cx="24.5" cy="24" r="23.5" stroke="#D2D3E1"/>
<path d="M27.5 14V24C27.5 25.1 26.6 26 25.5 26H14.5V19.62C15.23 20.49 16.35 21.03 17.59 21C18.6 20.98 19.51 20.59 20.19 19.94C20.5 19.68 20.76 19.35 20.96 18.99C21.32 18.38 21.52 17.66 21.5 16.91C21.47 15.74 20.95 14.71 20.14 14H27.5Z" stroke="#373843" stroke-linecap="round" stroke-linejoin="round"/>
<path d="M34.5 26V29C34.5 30.66 33.16 32 31.5 32H30.5C30.5 30.9 29.6 30 28.5 30C27.4 30 26.5 30.9 26.5 32H22.5C22.5 30.9 21.6 30 20.5 30C19.4 30 18.5 30.9 18.5 32H17.5C15.84 32 14.5 30.66 14.5 29V26H25.5C26.6 26 27.5 25.1 27.5 24V17H29.34C30.06 17 30.72 17.39 31.08 18.01L32.79 21H31.5C30.95 21 30.5 21.45 30.5 22V25C30.5 25.55 30.95 26 31.5 26H34.5Z" stroke="#373843" stroke-linecap="round" stroke-linejoin="round"/>
<path d="M20.5 34C21.6046 34 22.5 33.1046 22.5 32C22.5 30.8954 21.6046 30 20.5 30C19.3954 30 18.5 30.8954 18.5 32C18.5 33.1046 19.3954 34 20.5 34Z" stroke="#373843" stroke-linecap="round" stroke-linejoin="round"/>
<path d="M28.5 34C29.6046 34 30.5 33.1046 30.5 32C30.5 30.8954 29.6046 30 28.5 30C27.3954 30 26.5 30.8954 26.5 32C26.5 33.1046 27.3954 34 28.5 34Z" stroke="#373843" stroke-linecap="round" stroke-linejoin="round"/>
<path d="M34.5 24V26H31.5C30.95 26 30.5 25.55 30.5 25V22C30.5 21.45 30.95 21 31.5 21H32.79L34.5 24Z" stroke="#373843" stroke-linecap="round" stroke-linejoin="round"/>
<path d="M21.4999 16.9097C21.5199 17.6597 21.3199 18.3798 20.9599 18.9898C20.7599 19.3498 20.4999 19.6798 20.1899 19.9398C19.5099 20.5898 18.6 20.9798 17.59 20.9998C16.35 21.0298 15.2299 20.4898 14.4999 19.6198C14.3599 19.4698 14.2399 19.2998 14.1299 19.1298C13.7399 18.5398 13.5199 17.8398 13.4999 17.0898C13.4699 15.8298 14.0299 14.6798 14.9299 13.9298C15.6099 13.3698 16.4699 13.0198 17.4099 12.9998C18.4599 12.9798 19.4199 13.3598 20.1399 13.9998C20.9499 14.7098 21.4699 15.7397 21.4999 16.9097Z" stroke="#373843" stroke-miterlimit="10" stroke-linecap="round" stroke-linejoin="round"/>
<path d="M15.9399 17.0298L16.95 17.9897L19.0399 15.9697" stroke="#373843" stroke-linecap="round" stroke-linejoin="round"/>
</svg>
