<svg width="49" height="48" viewBox="0 0 49 48" fill="none" xmlns="http://www.w3.org/2000/svg">
<circle cx="24.5" cy="24" r="23.5" stroke="#D2D3E1"/>
<path d="M27.0502 14H21.9502C20.1502 14 19.7502 14.9 19.5202 16.01L18.7002 19.93H30.3002L29.4802 16.01C29.2502 14.9 28.8502 14 27.0502 14Z" stroke="#373843" stroke-linecap="round" stroke-linejoin="round"/>
<path d="M31.7401 26.3199C31.8201 27.1699 31.1401 27.9 30.2701 27.9H28.9101C28.1301 27.9 28.0201 27.57 27.8801 27.15L27.73 26.7199C27.53 26.1299 27.4001 25.7299 26.3501 25.7299H22.6401C21.6001 25.7299 21.44 26.1799 21.26 26.7199L21.1101 27.15C20.9701 27.56 20.8601 27.9 20.0801 27.9H18.7201C17.8501 27.9 17.1701 27.1699 17.2501 26.3199L17.6601 21.9C17.7601 20.81 17.97 19.9199 19.87 19.9199H29.12C31.02 19.9199 31.2301 20.81 31.3301 21.9L31.7401 26.3199Z" stroke="#373843" stroke-linecap="round" stroke-linejoin="round"/>
<path d="M18.7002 17.75H17.9702" stroke="#373843" stroke-linecap="round" stroke-linejoin="round"/>
<path d="M31.0303 17.75H30.3003" stroke="#373843" stroke-linecap="round" stroke-linejoin="round"/>
<path d="M20.1499 22.8301H22.3199" stroke="#373843" stroke-linecap="round" stroke-linejoin="round"/>
<path d="M26.6802 22.8301H28.8502" stroke="#373843" stroke-linecap="round" stroke-linejoin="round"/>
<path d="M24.5 29V30" stroke="#373843" stroke-linecap="round" stroke-linejoin="round"/>
<path d="M24.5 33V34" stroke="#373843" stroke-linecap="round" stroke-linejoin="round"/>
<path d="M15.5 30L14.5 34" stroke="#373843" stroke-linecap="round" stroke-linejoin="round"/>
<path d="M33.5 30L34.5 34" stroke="#373843" stroke-linecap="round" stroke-linejoin="round"/>
</svg>
