<svg width="49" height="48" viewBox="0 0 49 48" fill="none" xmlns="http://www.w3.org/2000/svg">
<circle cx="24.5" cy="24" r="23.5" stroke="#D2D3E1"/>
<path d="M21.5 31C21.5 31.75 21.29 32.46 20.92 33.06C20.23 34.22 18.96 35 17.5 35C16.04 35 14.77 34.22 14.08 33.06C13.71 32.46 13.5 31.75 13.5 31C13.5 28.79 15.29 27 17.5 27C19.71 27 21.5 28.79 21.5 31Z" stroke="#373843" stroke-miterlimit="10" stroke-linecap="round" stroke-linejoin="round"/>
<path d="M15.9414 30.9995L16.9314 31.9895L19.0614 30.0195" stroke="#373843" stroke-linecap="round" stroke-linejoin="round"/>
<path d="M30.2514 19.05C30.0114 19.01 29.7614 19 29.5014 19H19.5014C19.2214 19 18.9514 19.02 18.6914 19.06C18.8314 18.78 19.0314 18.52 19.2714 18.28L22.5214 15.02C23.8914 13.66 26.1114 13.66 27.4814 15.02L29.2314 16.79C29.8714 17.42 30.2114 18.22 30.2514 19.05Z" stroke="#373843" stroke-linecap="round" stroke-linejoin="round"/>
<path d="M34.5 24V29C34.5 32 32.5 34 29.5 34H20.13C20.44 33.74 20.71 33.42 20.92 33.06C21.29 32.46 21.5 31.75 21.5 31C21.5 28.79 19.71 27 17.5 27C16.3 27 15.23 27.53 14.5 28.36V24C14.5 21.28 16.14 19.38 18.69 19.06C18.95 19.02 19.22 19 19.5 19H29.5C29.76 19 30.01 19.01 30.25 19.05C32.83 19.35 34.5 21.26 34.5 24Z" stroke="#373843" stroke-linecap="round" stroke-linejoin="round"/>
<path d="M34.5 24.5H31.5C30.4 24.5 29.5 25.4 29.5 26.5C29.5 27.6 30.4 28.5 31.5 28.5H34.5" stroke="#373843" stroke-linecap="round" stroke-linejoin="round"/>
</svg>
